<mxfile host="app.diagrams.net" agent="Mozilla/5.0 (Windows NT 10.0; Win64; x64) AppleWebKit/537.36 (KHTML, like Gecko) Chrome/138.0.0.0 Safari/537.36 Edg/138.0.0.0" version="28.0.7">
  <diagram name="Page-1" id="rYkSNON5f-lDWxG6IL0g">
    <mxGraphModel dx="1144" dy="660" grid="1" gridSize="10" guides="1" tooltips="1" connect="1" arrows="1" fold="1" page="1" pageScale="1" pageWidth="850" pageHeight="1100" math="0" shadow="0">
      <root>
        <mxCell id="0" />
        <mxCell id="1" parent="0" />
        <mxCell id="6OKxg32zUcpk-TssQ5vP-1" value="Máquina Local del Desarrollador - localhost" style="whiteSpace=wrap;strokeWidth=2;verticalAlign=top;fontSize=16;fontStyle=1" vertex="1" parent="1">
          <mxGeometry x="20" y="20" width="674" height="665" as="geometry" />
        </mxCell>
        <mxCell id="6OKxg32zUcpk-TssQ5vP-7" value="" style="whiteSpace=wrap;strokeWidth=2;" vertex="1" parent="6OKxg32zUcpk-TssQ5vP-1">
          <mxGeometry x="20" y="240" width="634" height="409" as="geometry" />
        </mxCell>
        <mxCell id="6OKxg32zUcpk-TssQ5vP-3" value="" style="whiteSpace=wrap;strokeWidth=2;fontSize=16;fontStyle=1" vertex="1" parent="6OKxg32zUcpk-TssQ5vP-1">
          <mxGeometry x="60" y="270" width="580" height="334" as="geometry" />
        </mxCell>
        <mxCell id="6OKxg32zUcpk-TssQ5vP-2" value="Backend (FastAPI)&#xa;Puerto 8000" style="whiteSpace=wrap;strokeWidth=2;fontSize=16;fontStyle=1" vertex="1" parent="6OKxg32zUcpk-TssQ5vP-1">
          <mxGeometry x="116" y="301" width="189" height="102" as="geometry" />
        </mxCell>
        <mxCell id="6OKxg32zUcpk-TssQ5vP-4" value="Navegador Web&#xa;(Ejecuta Frontend React)" style="whiteSpace=wrap;strokeWidth=2;fontSize=16;fontStyle=1" vertex="1" parent="6OKxg32zUcpk-TssQ5vP-1">
          <mxGeometry x="244" y="46" width="241" height="102" as="geometry" />
        </mxCell>
        <mxCell id="6OKxg32zUcpk-TssQ5vP-5" value="Servidor de Desarrollo&#xa;React (Puerto 3000)" style="whiteSpace=wrap;strokeWidth=2;fontSize=16;fontStyle=1" vertex="1" parent="6OKxg32zUcpk-TssQ5vP-1">
          <mxGeometry x="408" y="301" width="219" height="102" as="geometry" />
        </mxCell>
        <mxCell id="6OKxg32zUcpk-TssQ5vP-6" value="Base de Datos (PostgreSQL)" style="whiteSpace=wrap;strokeWidth=2;fontSize=16;fontStyle=1" vertex="1" parent="6OKxg32zUcpk-TssQ5vP-1">
          <mxGeometry x="83" y="482" width="255" height="78" as="geometry" />
        </mxCell>
        <mxCell id="6OKxg32zUcpk-TssQ5vP-8" value="1. Carga la aplicación desde" style="curved=1;startArrow=none;endArrow=block;exitX=0.86;exitY=0.99;entryX=0.5;entryY=0;rounded=0;fontSize=16;fontStyle=1" edge="1" parent="6OKxg32zUcpk-TssQ5vP-1" source="6OKxg32zUcpk-TssQ5vP-4" target="6OKxg32zUcpk-TssQ5vP-5">
          <mxGeometry relative="1" as="geometry">
            <Array as="points">
              <mxPoint x="518" y="187" />
            </Array>
          </mxGeometry>
        </mxCell>
        <mxCell id="6OKxg32zUcpk-TssQ5vP-9" value="2. Realiza peticiones HTTP (API)" style="curved=1;startArrow=none;endArrow=block;exitX=0.14;exitY=0.99;entryX=0.5;entryY=0;rounded=0;fontSize=16;fontStyle=1" edge="1" parent="6OKxg32zUcpk-TssQ5vP-1" source="6OKxg32zUcpk-TssQ5vP-4" target="6OKxg32zUcpk-TssQ5vP-2">
          <mxGeometry relative="1" as="geometry">
            <Array as="points">
              <mxPoint x="211" y="187" />
            </Array>
          </mxGeometry>
        </mxCell>
        <mxCell id="6OKxg32zUcpk-TssQ5vP-10" value="3. Accede a los datos (CRUD)" style="curved=1;startArrow=none;endArrow=block;exitX=0.5;exitY=1;entryX=0.5;entryY=0.01;rounded=0;fontSize=16;fontStyle=1" edge="1" parent="6OKxg32zUcpk-TssQ5vP-1" source="6OKxg32zUcpk-TssQ5vP-2" target="6OKxg32zUcpk-TssQ5vP-6">
          <mxGeometry relative="1" as="geometry">
            <Array as="points" />
          </mxGeometry>
        </mxCell>
        <mxCell id="6OKxg32zUcpk-TssQ5vP-12" value="&lt;font style=&quot;font-size: 16px;&quot;&gt;&lt;b&gt;Servicios en Ejecución&lt;/b&gt;&lt;/font&gt;" style="text;html=1;align=center;verticalAlign=middle;whiteSpace=wrap;rounded=0;" vertex="1" parent="6OKxg32zUcpk-TssQ5vP-1">
          <mxGeometry x="244" y="240" width="299" height="40" as="geometry" />
        </mxCell>
        <mxCell id="6OKxg32zUcpk-TssQ5vP-13" value="&lt;span style=&quot;font-size: 16px; font-weight: 700;&quot;&gt;Entorno Docker&lt;/span&gt;" style="text;html=1;align=center;verticalAlign=middle;whiteSpace=wrap;rounded=0;" vertex="1" parent="6OKxg32zUcpk-TssQ5vP-1">
          <mxGeometry x="447.5" y="450" width="140" height="40" as="geometry" />
        </mxCell>
      </root>
    </mxGraphModel>
  </diagram>
</mxfile>
